<mxfile host="app.diagrams.net" modified="2024-04-15T15:09:09.408Z" agent="Mozilla/5.0 (Windows NT 10.0; Win64; x64) AppleWebKit/537.36 (KHTML, like Gecko) Chrome/123.0.0.0 Safari/537.36" etag="H2bzjfuTQkUKdGUbrReg" version="24.2.5" type="device">
  <diagram name="Pagina-1" id="bvnTKcdRaWNUgddcYDJG">
    <mxGraphModel dx="1050" dy="530" grid="1" gridSize="10" guides="1" tooltips="1" connect="1" arrows="1" fold="1" page="1" pageScale="1" pageWidth="827" pageHeight="1169" math="0" shadow="0">
      <root>
        <mxCell id="0" />
        <mxCell id="1" parent="0" />
        <mxCell id="77lns0V9YJhLVZjL7r9Z-2" value="Corso" style="swimlane;fontStyle=0;childLayout=stackLayout;horizontal=1;startSize=30;horizontalStack=0;resizeParent=1;resizeParentMax=0;resizeLast=0;collapsible=1;marginBottom=0;whiteSpace=wrap;html=1;" vertex="1" parent="1">
          <mxGeometry x="360" y="160" width="140" height="240" as="geometry" />
        </mxCell>
        <mxCell id="77lns0V9YJhLVZjL7r9Z-39" value="Titolo: String" style="text;strokeColor=none;fillColor=none;align=left;verticalAlign=middle;spacingLeft=4;spacingRight=4;overflow=hidden;points=[[0,0.5],[1,0.5]];portConstraint=eastwest;rotatable=0;whiteSpace=wrap;html=1;" vertex="1" parent="77lns0V9YJhLVZjL7r9Z-2">
          <mxGeometry y="30" width="140" height="30" as="geometry" />
        </mxCell>
        <mxCell id="77lns0V9YJhLVZjL7r9Z-3" value="Titolo: String" style="text;strokeColor=none;fillColor=none;align=left;verticalAlign=middle;spacingLeft=4;spacingRight=4;overflow=hidden;points=[[0,0.5],[1,0.5]];portConstraint=eastwest;rotatable=0;whiteSpace=wrap;html=1;" vertex="1" parent="77lns0V9YJhLVZjL7r9Z-2">
          <mxGeometry y="60" width="140" height="30" as="geometry" />
        </mxCell>
        <mxCell id="77lns0V9YJhLVZjL7r9Z-4" value="Descrizione:String" style="text;strokeColor=none;fillColor=none;align=left;verticalAlign=middle;spacingLeft=4;spacingRight=4;overflow=hidden;points=[[0,0.5],[1,0.5]];portConstraint=eastwest;rotatable=0;whiteSpace=wrap;html=1;" vertex="1" parent="77lns0V9YJhLVZjL7r9Z-2">
          <mxGeometry y="90" width="140" height="30" as="geometry" />
        </mxCell>
        <mxCell id="77lns0V9YJhLVZjL7r9Z-5" value="Data inizio: LocalDate" style="text;strokeColor=none;fillColor=none;align=left;verticalAlign=middle;spacingLeft=4;spacingRight=4;overflow=hidden;points=[[0,0.5],[1,0.5]];portConstraint=eastwest;rotatable=0;whiteSpace=wrap;html=1;" vertex="1" parent="77lns0V9YJhLVZjL7r9Z-2">
          <mxGeometry y="120" width="140" height="30" as="geometry" />
        </mxCell>
        <mxCell id="77lns0V9YJhLVZjL7r9Z-8" value="Data fine: LocalDate" style="text;strokeColor=none;fillColor=none;align=left;verticalAlign=middle;spacingLeft=4;spacingRight=4;overflow=hidden;points=[[0,0.5],[1,0.5]];portConstraint=eastwest;rotatable=0;whiteSpace=wrap;html=1;" vertex="1" parent="77lns0V9YJhLVZjL7r9Z-2">
          <mxGeometry y="150" width="140" height="30" as="geometry" />
        </mxCell>
        <mxCell id="77lns0V9YJhLVZjL7r9Z-9" value="Partecipanti: String" style="text;strokeColor=none;fillColor=none;align=left;verticalAlign=middle;spacingLeft=4;spacingRight=4;overflow=hidden;points=[[0,0.5],[1,0.5]];portConstraint=eastwest;rotatable=0;whiteSpace=wrap;html=1;" vertex="1" parent="77lns0V9YJhLVZjL7r9Z-2">
          <mxGeometry y="180" width="140" height="30" as="geometry" />
        </mxCell>
        <mxCell id="77lns0V9YJhLVZjL7r9Z-10" value="Insegnante: String" style="text;strokeColor=none;fillColor=none;align=left;verticalAlign=middle;spacingLeft=4;spacingRight=4;overflow=hidden;points=[[0,0.5],[1,0.5]];portConstraint=eastwest;rotatable=0;whiteSpace=wrap;html=1;" vertex="1" parent="77lns0V9YJhLVZjL7r9Z-2">
          <mxGeometry y="210" width="140" height="30" as="geometry" />
        </mxCell>
        <mxCell id="77lns0V9YJhLVZjL7r9Z-11" value="Iscrizione" style="swimlane;fontStyle=0;childLayout=stackLayout;horizontal=1;startSize=30;horizontalStack=0;resizeParent=1;resizeParentMax=0;resizeLast=0;collapsible=1;marginBottom=0;whiteSpace=wrap;html=1;" vertex="1" parent="1">
          <mxGeometry x="80" y="160" width="140" height="120" as="geometry" />
        </mxCell>
        <mxCell id="77lns0V9YJhLVZjL7r9Z-12" value="Data : LocalDate" style="text;strokeColor=none;fillColor=none;align=left;verticalAlign=middle;spacingLeft=4;spacingRight=4;overflow=hidden;points=[[0,0.5],[1,0.5]];portConstraint=eastwest;rotatable=0;whiteSpace=wrap;html=1;" vertex="1" parent="77lns0V9YJhLVZjL7r9Z-11">
          <mxGeometry y="30" width="140" height="30" as="geometry" />
        </mxCell>
        <mxCell id="77lns0V9YJhLVZjL7r9Z-13" value="Corso: String" style="text;strokeColor=none;fillColor=none;align=left;verticalAlign=middle;spacingLeft=4;spacingRight=4;overflow=hidden;points=[[0,0.5],[1,0.5]];portConstraint=eastwest;rotatable=0;whiteSpace=wrap;html=1;" vertex="1" parent="77lns0V9YJhLVZjL7r9Z-11">
          <mxGeometry y="60" width="140" height="30" as="geometry" />
        </mxCell>
        <mxCell id="77lns0V9YJhLVZjL7r9Z-14" value="Studente : String" style="text;strokeColor=none;fillColor=none;align=left;verticalAlign=middle;spacingLeft=4;spacingRight=4;overflow=hidden;points=[[0,0.5],[1,0.5]];portConstraint=eastwest;rotatable=0;whiteSpace=wrap;html=1;" vertex="1" parent="77lns0V9YJhLVZjL7r9Z-11">
          <mxGeometry y="90" width="140" height="30" as="geometry" />
        </mxCell>
        <mxCell id="77lns0V9YJhLVZjL7r9Z-18" value="Studente" style="swimlane;fontStyle=0;childLayout=stackLayout;horizontal=1;startSize=30;horizontalStack=0;resizeParent=1;resizeParentMax=0;resizeLast=0;collapsible=1;marginBottom=0;whiteSpace=wrap;html=1;" vertex="1" parent="1">
          <mxGeometry x="80" y="400" width="140" height="150" as="geometry" />
        </mxCell>
        <mxCell id="77lns0V9YJhLVZjL7r9Z-19" value="Nome: String" style="text;strokeColor=none;fillColor=none;align=left;verticalAlign=middle;spacingLeft=4;spacingRight=4;overflow=hidden;points=[[0,0.5],[1,0.5]];portConstraint=eastwest;rotatable=0;whiteSpace=wrap;html=1;" vertex="1" parent="77lns0V9YJhLVZjL7r9Z-18">
          <mxGeometry y="30" width="140" height="30" as="geometry" />
        </mxCell>
        <mxCell id="77lns0V9YJhLVZjL7r9Z-20" value="Cognome: String" style="text;strokeColor=none;fillColor=none;align=left;verticalAlign=middle;spacingLeft=4;spacingRight=4;overflow=hidden;points=[[0,0.5],[1,0.5]];portConstraint=eastwest;rotatable=0;whiteSpace=wrap;html=1;" vertex="1" parent="77lns0V9YJhLVZjL7r9Z-18">
          <mxGeometry y="60" width="140" height="30" as="geometry" />
        </mxCell>
        <mxCell id="77lns0V9YJhLVZjL7r9Z-21" value="Email: String" style="text;strokeColor=none;fillColor=none;align=left;verticalAlign=middle;spacingLeft=4;spacingRight=4;overflow=hidden;points=[[0,0.5],[1,0.5]];portConstraint=eastwest;rotatable=0;whiteSpace=wrap;html=1;" vertex="1" parent="77lns0V9YJhLVZjL7r9Z-18">
          <mxGeometry y="90" width="140" height="30" as="geometry" />
        </mxCell>
        <mxCell id="77lns0V9YJhLVZjL7r9Z-22" value="Corsi: String" style="text;strokeColor=none;fillColor=none;align=left;verticalAlign=middle;spacingLeft=4;spacingRight=4;overflow=hidden;points=[[0,0.5],[1,0.5]];portConstraint=eastwest;rotatable=0;whiteSpace=wrap;html=1;" vertex="1" parent="77lns0V9YJhLVZjL7r9Z-18">
          <mxGeometry y="120" width="140" height="30" as="geometry" />
        </mxCell>
        <mxCell id="77lns0V9YJhLVZjL7r9Z-23" value="Insegnante" style="swimlane;fontStyle=0;childLayout=stackLayout;horizontal=1;startSize=30;horizontalStack=0;resizeParent=1;resizeParentMax=0;resizeLast=0;collapsible=1;marginBottom=0;whiteSpace=wrap;html=1;" vertex="1" parent="1">
          <mxGeometry x="620" y="160" width="140" height="150" as="geometry" />
        </mxCell>
        <mxCell id="77lns0V9YJhLVZjL7r9Z-24" value="Nome: String" style="text;strokeColor=none;fillColor=none;align=left;verticalAlign=middle;spacingLeft=4;spacingRight=4;overflow=hidden;points=[[0,0.5],[1,0.5]];portConstraint=eastwest;rotatable=0;whiteSpace=wrap;html=1;" vertex="1" parent="77lns0V9YJhLVZjL7r9Z-23">
          <mxGeometry y="30" width="140" height="30" as="geometry" />
        </mxCell>
        <mxCell id="77lns0V9YJhLVZjL7r9Z-25" value="Cognome: String" style="text;strokeColor=none;fillColor=none;align=left;verticalAlign=middle;spacingLeft=4;spacingRight=4;overflow=hidden;points=[[0,0.5],[1,0.5]];portConstraint=eastwest;rotatable=0;whiteSpace=wrap;html=1;" vertex="1" parent="77lns0V9YJhLVZjL7r9Z-23">
          <mxGeometry y="60" width="140" height="30" as="geometry" />
        </mxCell>
        <mxCell id="77lns0V9YJhLVZjL7r9Z-26" value="Email: String" style="text;strokeColor=none;fillColor=none;align=left;verticalAlign=middle;spacingLeft=4;spacingRight=4;overflow=hidden;points=[[0,0.5],[1,0.5]];portConstraint=eastwest;rotatable=0;whiteSpace=wrap;html=1;" vertex="1" parent="77lns0V9YJhLVZjL7r9Z-23">
          <mxGeometry y="90" width="140" height="30" as="geometry" />
        </mxCell>
        <mxCell id="77lns0V9YJhLVZjL7r9Z-27" value="Corsi: SAtring" style="text;strokeColor=none;fillColor=none;align=left;verticalAlign=middle;spacingLeft=4;spacingRight=4;overflow=hidden;points=[[0,0.5],[1,0.5]];portConstraint=eastwest;rotatable=0;whiteSpace=wrap;html=1;" vertex="1" parent="77lns0V9YJhLVZjL7r9Z-23">
          <mxGeometry y="120" width="140" height="30" as="geometry" />
        </mxCell>
        <mxCell id="77lns0V9YJhLVZjL7r9Z-28" value="Amministratore" style="swimlane;fontStyle=0;childLayout=stackLayout;horizontal=1;startSize=30;horizontalStack=0;resizeParent=1;resizeParentMax=0;resizeLast=0;collapsible=1;marginBottom=0;whiteSpace=wrap;html=1;" vertex="1" parent="1">
          <mxGeometry x="620" y="420" width="140" height="150" as="geometry" />
        </mxCell>
        <mxCell id="77lns0V9YJhLVZjL7r9Z-29" value="Nome: String" style="text;strokeColor=none;fillColor=none;align=left;verticalAlign=middle;spacingLeft=4;spacingRight=4;overflow=hidden;points=[[0,0.5],[1,0.5]];portConstraint=eastwest;rotatable=0;whiteSpace=wrap;html=1;" vertex="1" parent="77lns0V9YJhLVZjL7r9Z-28">
          <mxGeometry y="30" width="140" height="30" as="geometry" />
        </mxCell>
        <mxCell id="77lns0V9YJhLVZjL7r9Z-30" value="Cognome: String" style="text;strokeColor=none;fillColor=none;align=left;verticalAlign=middle;spacingLeft=4;spacingRight=4;overflow=hidden;points=[[0,0.5],[1,0.5]];portConstraint=eastwest;rotatable=0;whiteSpace=wrap;html=1;" vertex="1" parent="77lns0V9YJhLVZjL7r9Z-28">
          <mxGeometry y="60" width="140" height="30" as="geometry" />
        </mxCell>
        <mxCell id="77lns0V9YJhLVZjL7r9Z-31" value="Email: String" style="text;strokeColor=none;fillColor=none;align=left;verticalAlign=middle;spacingLeft=4;spacingRight=4;overflow=hidden;points=[[0,0.5],[1,0.5]];portConstraint=eastwest;rotatable=0;whiteSpace=wrap;html=1;" vertex="1" parent="77lns0V9YJhLVZjL7r9Z-28">
          <mxGeometry y="90" width="140" height="30" as="geometry" />
        </mxCell>
        <mxCell id="77lns0V9YJhLVZjL7r9Z-32" value="Corsi: String" style="text;strokeColor=none;fillColor=none;align=left;verticalAlign=middle;spacingLeft=4;spacingRight=4;overflow=hidden;points=[[0,0.5],[1,0.5]];portConstraint=eastwest;rotatable=0;whiteSpace=wrap;html=1;" vertex="1" parent="77lns0V9YJhLVZjL7r9Z-28">
          <mxGeometry y="120" width="140" height="30" as="geometry" />
        </mxCell>
        <mxCell id="77lns0V9YJhLVZjL7r9Z-33" value="Autenticazione" style="swimlane;fontStyle=0;childLayout=stackLayout;horizontal=1;startSize=30;horizontalStack=0;resizeParent=1;resizeParentMax=0;resizeLast=0;collapsible=1;marginBottom=0;whiteSpace=wrap;html=1;" vertex="1" parent="1">
          <mxGeometry x="350" y="450" width="140" height="90" as="geometry" />
        </mxCell>
        <mxCell id="77lns0V9YJhLVZjL7r9Z-34" value="Utente: String" style="text;strokeColor=none;fillColor=none;align=left;verticalAlign=middle;spacingLeft=4;spacingRight=4;overflow=hidden;points=[[0,0.5],[1,0.5]];portConstraint=eastwest;rotatable=0;whiteSpace=wrap;html=1;" vertex="1" parent="77lns0V9YJhLVZjL7r9Z-33">
          <mxGeometry y="30" width="140" height="30" as="geometry" />
        </mxCell>
        <mxCell id="77lns0V9YJhLVZjL7r9Z-35" value="Password: String" style="text;strokeColor=none;fillColor=none;align=left;verticalAlign=middle;spacingLeft=4;spacingRight=4;overflow=hidden;points=[[0,0.5],[1,0.5]];portConstraint=eastwest;rotatable=0;whiteSpace=wrap;html=1;" vertex="1" parent="77lns0V9YJhLVZjL7r9Z-33">
          <mxGeometry y="60" width="140" height="30" as="geometry" />
        </mxCell>
        <mxCell id="77lns0V9YJhLVZjL7r9Z-41" value="1" style="text;html=1;align=center;verticalAlign=middle;resizable=0;points=[];autosize=1;strokeColor=none;fillColor=none;" vertex="1" parent="1">
          <mxGeometry x="315" y="188" width="30" height="30" as="geometry" />
        </mxCell>
        <mxCell id="77lns0V9YJhLVZjL7r9Z-42" value="n" style="text;html=1;align=center;verticalAlign=middle;resizable=0;points=[];autosize=1;strokeColor=none;fillColor=none;" vertex="1" parent="1">
          <mxGeometry x="225" y="188" width="30" height="30" as="geometry" />
        </mxCell>
        <mxCell id="77lns0V9YJhLVZjL7r9Z-44" value="n" style="text;html=1;align=center;verticalAlign=middle;resizable=0;points=[];autosize=1;strokeColor=none;fillColor=none;" vertex="1" parent="1">
          <mxGeometry x="165" y="288" width="30" height="30" as="geometry" />
        </mxCell>
        <mxCell id="77lns0V9YJhLVZjL7r9Z-45" value="1" style="text;html=1;align=center;verticalAlign=middle;resizable=0;points=[];autosize=1;strokeColor=none;fillColor=none;" vertex="1" parent="1">
          <mxGeometry x="165" y="358" width="30" height="30" as="geometry" />
        </mxCell>
        <mxCell id="77lns0V9YJhLVZjL7r9Z-47" value="1" style="text;html=1;align=center;verticalAlign=middle;resizable=0;points=[];autosize=1;strokeColor=none;fillColor=none;" vertex="1" parent="1">
          <mxGeometry x="515" y="208" width="30" height="30" as="geometry" />
        </mxCell>
        <mxCell id="77lns0V9YJhLVZjL7r9Z-48" value="n" style="text;html=1;align=center;verticalAlign=middle;resizable=0;points=[];autosize=1;strokeColor=none;fillColor=none;" vertex="1" parent="1">
          <mxGeometry x="580" y="205" width="30" height="30" as="geometry" />
        </mxCell>
        <mxCell id="77lns0V9YJhLVZjL7r9Z-50" value="1" style="text;html=1;align=center;verticalAlign=middle;resizable=0;points=[];autosize=1;strokeColor=none;fillColor=none;" vertex="1" parent="1">
          <mxGeometry x="605" y="378" width="30" height="30" as="geometry" />
        </mxCell>
        <mxCell id="77lns0V9YJhLVZjL7r9Z-51" value="n" style="text;html=1;align=center;verticalAlign=middle;resizable=0;points=[];autosize=1;strokeColor=none;fillColor=none;" vertex="1" parent="1">
          <mxGeometry x="505" y="338" width="30" height="30" as="geometry" />
        </mxCell>
        <mxCell id="77lns0V9YJhLVZjL7r9Z-52" value="" style="endArrow=block;startArrow=block;endFill=1;startFill=1;html=1;rounded=0;exitX=0.06;exitY=0.987;exitDx=0;exitDy=0;exitPerimeter=0;" edge="1" parent="1" source="77lns0V9YJhLVZjL7r9Z-51">
          <mxGeometry width="160" relative="1" as="geometry">
            <mxPoint x="460" y="420" as="sourcePoint" />
            <mxPoint x="620" y="420" as="targetPoint" />
          </mxGeometry>
        </mxCell>
        <mxCell id="77lns0V9YJhLVZjL7r9Z-53" value="" style="endArrow=block;startArrow=block;endFill=1;startFill=1;html=1;rounded=0;exitX=0.06;exitY=0.987;exitDx=0;exitDy=0;exitPerimeter=0;entryX=0;entryY=0.5;entryDx=0;entryDy=0;" edge="1" parent="1" target="77lns0V9YJhLVZjL7r9Z-25">
          <mxGeometry width="160" relative="1" as="geometry">
            <mxPoint x="507" y="236" as="sourcePoint" />
            <mxPoint x="620" y="288" as="targetPoint" />
          </mxGeometry>
        </mxCell>
        <mxCell id="77lns0V9YJhLVZjL7r9Z-54" value="" style="endArrow=block;startArrow=block;endFill=1;startFill=1;html=1;rounded=0;exitX=0.06;exitY=0.987;exitDx=0;exitDy=0;exitPerimeter=0;" edge="1" parent="1">
          <mxGeometry width="160" relative="1" as="geometry">
            <mxPoint x="225" y="228" as="sourcePoint" />
            <mxPoint x="350" y="230" as="targetPoint" />
          </mxGeometry>
        </mxCell>
        <mxCell id="77lns0V9YJhLVZjL7r9Z-55" value="" style="endArrow=block;startArrow=block;endFill=1;startFill=1;html=1;rounded=0;" edge="1" parent="1">
          <mxGeometry width="160" relative="1" as="geometry">
            <mxPoint x="149.5" y="288" as="sourcePoint" />
            <mxPoint x="149.5" y="388" as="targetPoint" />
          </mxGeometry>
        </mxCell>
        <mxCell id="77lns0V9YJhLVZjL7r9Z-56" value="" style="endArrow=block;startArrow=block;endFill=1;startFill=1;html=1;rounded=0;" edge="1" parent="1">
          <mxGeometry width="160" relative="1" as="geometry">
            <mxPoint x="500" y="510" as="sourcePoint" />
            <mxPoint x="610" y="511" as="targetPoint" />
          </mxGeometry>
        </mxCell>
        <mxCell id="77lns0V9YJhLVZjL7r9Z-57" value="1" style="text;html=1;align=center;verticalAlign=middle;resizable=0;points=[];autosize=1;strokeColor=none;fillColor=none;" vertex="1" parent="1">
          <mxGeometry x="585" y="468" width="30" height="30" as="geometry" />
        </mxCell>
        <mxCell id="77lns0V9YJhLVZjL7r9Z-58" value="1" style="text;html=1;align=center;verticalAlign=middle;resizable=0;points=[];autosize=1;strokeColor=none;fillColor=none;" vertex="1" parent="1">
          <mxGeometry x="505" y="468" width="30" height="30" as="geometry" />
        </mxCell>
        <mxCell id="77lns0V9YJhLVZjL7r9Z-59" value="" style="endArrow=block;startArrow=block;endFill=1;startFill=1;html=1;rounded=0;exitX=0.06;exitY=0.987;exitDx=0;exitDy=0;exitPerimeter=0;entryX=-0.04;entryY=0.04;entryDx=0;entryDy=0;entryPerimeter=0;" edge="1" parent="1">
          <mxGeometry width="160" relative="1" as="geometry">
            <mxPoint x="225" y="482.4" as="sourcePoint" />
            <mxPoint x="332.4000000000001" y="483.6" as="targetPoint" />
          </mxGeometry>
        </mxCell>
        <mxCell id="77lns0V9YJhLVZjL7r9Z-60" value="1" style="text;html=1;align=center;verticalAlign=middle;resizable=0;points=[];autosize=1;strokeColor=none;fillColor=none;" vertex="1" parent="1">
          <mxGeometry x="235" y="448" width="30" height="30" as="geometry" />
        </mxCell>
        <mxCell id="77lns0V9YJhLVZjL7r9Z-61" value="1" style="text;html=1;align=center;verticalAlign=middle;resizable=0;points=[];autosize=1;strokeColor=none;fillColor=none;" vertex="1" parent="1">
          <mxGeometry x="315" y="448" width="30" height="30" as="geometry" />
        </mxCell>
        <mxCell id="77lns0V9YJhLVZjL7r9Z-62" value="" style="endArrow=block;startArrow=block;endFill=1;startFill=1;html=1;rounded=0;exitX=0.06;exitY=0.987;exitDx=0;exitDy=0;exitPerimeter=0;" edge="1" parent="1" target="77lns0V9YJhLVZjL7r9Z-63">
          <mxGeometry width="160" relative="1" as="geometry">
            <mxPoint x="490" y="446" as="sourcePoint" />
            <mxPoint x="620" y="320" as="targetPoint" />
          </mxGeometry>
        </mxCell>
        <mxCell id="77lns0V9YJhLVZjL7r9Z-63" value="1" style="text;html=1;align=center;verticalAlign=middle;resizable=0;points=[];autosize=1;strokeColor=none;fillColor=none;" vertex="1" parent="1">
          <mxGeometry x="585" y="308" width="30" height="30" as="geometry" />
        </mxCell>
        <mxCell id="77lns0V9YJhLVZjL7r9Z-64" value="1" style="text;html=1;align=center;verticalAlign=middle;resizable=0;points=[];autosize=1;strokeColor=none;fillColor=none;" vertex="1" parent="1">
          <mxGeometry x="475" y="408" width="30" height="30" as="geometry" />
        </mxCell>
        <mxCell id="77lns0V9YJhLVZjL7r9Z-65" value="Il corso è&amp;nbsp;&lt;div&gt;gestito da&lt;/div&gt;" style="text;html=1;align=center;verticalAlign=middle;resizable=0;points=[];autosize=1;strokeColor=none;fillColor=none;" vertex="1" parent="1">
          <mxGeometry x="515" y="170" width="80" height="40" as="geometry" />
        </mxCell>
        <mxCell id="77lns0V9YJhLVZjL7r9Z-66" value="Lo studente&amp;nbsp;&lt;div&gt;è iscritto a&lt;/div&gt;" style="text;html=1;align=center;verticalAlign=middle;resizable=0;points=[];autosize=1;strokeColor=none;fillColor=none;" vertex="1" parent="1">
          <mxGeometry x="55" y="323" width="90" height="40" as="geometry" />
        </mxCell>
        <mxCell id="77lns0V9YJhLVZjL7r9Z-67" value="Lo studente è&amp;nbsp;&lt;div&gt;autenticato&lt;/div&gt;" style="text;html=1;align=center;verticalAlign=middle;resizable=0;points=[];autosize=1;strokeColor=none;fillColor=none;" vertex="1" parent="1">
          <mxGeometry x="230" y="410" width="100" height="40" as="geometry" />
        </mxCell>
        <mxCell id="77lns0V9YJhLVZjL7r9Z-68" value="L&#39;amministratore&amp;nbsp;&lt;div&gt;è autenticato&lt;/div&gt;" style="text;html=1;align=center;verticalAlign=middle;resizable=0;points=[];autosize=1;strokeColor=none;fillColor=none;" vertex="1" parent="1">
          <mxGeometry x="495" y="438" width="120" height="40" as="geometry" />
        </mxCell>
        <mxCell id="77lns0V9YJhLVZjL7r9Z-69" value="Presiede" style="text;html=1;align=center;verticalAlign=middle;resizable=0;points=[];autosize=1;strokeColor=none;fillColor=none;" vertex="1" parent="1">
          <mxGeometry x="595" y="358" width="70" height="30" as="geometry" />
        </mxCell>
        <mxCell id="77lns0V9YJhLVZjL7r9Z-74" value="1&lt;br&gt;&lt;span style=&quot;color: rgb(17, 17, 17); font-family: -apple-system, Roboto, SegoeUI, &amp;quot;Segoe UI&amp;quot;, &amp;quot;Helvetica Neue&amp;quot;, Helvetica, &amp;quot;Microsoft YaHei&amp;quot;, &amp;quot;Meiryo UI&amp;quot;, Meiryo, &amp;quot;Arial Unicode MS&amp;quot;, sans-serif; font-size: 16px; font-style: normal; font-variant-ligatures: normal; font-variant-caps: normal; font-weight: 400; letter-spacing: normal; orphans: 2; text-align: left; text-indent: 0px; text-transform: none; widows: 2; word-spacing: 0px; -webkit-text-stroke-width: 0px; white-space: normal; background-color: rgb(255, 255, 255); text-decoration-thickness: initial; text-decoration-style: initial; text-decoration-color: initial; display: inline !important; float: none;&quot;&gt;Un corso può avere molte iscrizioni. Ogni iscrizione è associata a un singolo corso.&lt;/span&gt;&lt;br&gt;&lt;br&gt;2&lt;br&gt;&lt;div&gt;&lt;span style=&quot;color: rgb(17, 17, 17); font-family: -apple-system, Roboto, SegoeUI, &amp;quot;Segoe UI&amp;quot;, &amp;quot;Helvetica Neue&amp;quot;, Helvetica, &amp;quot;Microsoft YaHei&amp;quot;, &amp;quot;Meiryo UI&amp;quot;, Meiryo, &amp;quot;Arial Unicode MS&amp;quot;, sans-serif; font-size: 16px; text-align: left; background-color: rgb(255, 255, 255);&quot;&gt;Uno studente può avere molte iscrizioni. Ogni iscrizione è associata a un singolo studente.&lt;/span&gt;&lt;br&gt;&lt;/div&gt;&lt;div&gt;&lt;span style=&quot;color: rgb(17, 17, 17); font-family: -apple-system, Roboto, SegoeUI, &amp;quot;Segoe UI&amp;quot;, &amp;quot;Helvetica Neue&amp;quot;, Helvetica, &amp;quot;Microsoft YaHei&amp;quot;, &amp;quot;Meiryo UI&amp;quot;, Meiryo, &amp;quot;Arial Unicode MS&amp;quot;, sans-serif; font-size: 16px; text-align: left; background-color: rgb(255, 255, 255);&quot;&gt;&lt;br&gt;&lt;/span&gt;&lt;/div&gt;&lt;div&gt;&lt;span style=&quot;color: rgb(17, 17, 17); font-family: -apple-system, Roboto, SegoeUI, &amp;quot;Segoe UI&amp;quot;, &amp;quot;Helvetica Neue&amp;quot;, Helvetica, &amp;quot;Microsoft YaHei&amp;quot;, &amp;quot;Meiryo UI&amp;quot;, Meiryo, &amp;quot;Arial Unicode MS&amp;quot;, sans-serif; font-size: 16px; text-align: left; background-color: rgb(255, 255, 255);&quot;&gt;3&lt;/span&gt;&lt;/div&gt;&lt;div&gt;&lt;span style=&quot;color: rgb(17, 17, 17); font-family: -apple-system, Roboto, SegoeUI, &amp;quot;Segoe UI&amp;quot;, &amp;quot;Helvetica Neue&amp;quot;, Helvetica, &amp;quot;Microsoft YaHei&amp;quot;, &amp;quot;Meiryo UI&amp;quot;, Meiryo, &amp;quot;Arial Unicode MS&amp;quot;, sans-serif; font-size: 16px; text-align: left; background-color: rgb(255, 255, 255);&quot;&gt;Un corso è insegnato da un singolo insegnante. Un insegnante può insegnare più corsi.&lt;/span&gt;&lt;span style=&quot;color: rgb(17, 17, 17); font-family: -apple-system, Roboto, SegoeUI, &amp;quot;Segoe UI&amp;quot;, &amp;quot;Helvetica Neue&amp;quot;, Helvetica, &amp;quot;Microsoft YaHei&amp;quot;, &amp;quot;Meiryo UI&amp;quot;, Meiryo, &amp;quot;Arial Unicode MS&amp;quot;, sans-serif; font-size: 16px; text-align: left; background-color: rgb(255, 255, 255);&quot;&gt;&lt;br&gt;&lt;/span&gt;&lt;/div&gt;&lt;div&gt;&lt;span style=&quot;color: rgb(17, 17, 17); font-family: -apple-system, Roboto, SegoeUI, &amp;quot;Segoe UI&amp;quot;, &amp;quot;Helvetica Neue&amp;quot;, Helvetica, &amp;quot;Microsoft YaHei&amp;quot;, &amp;quot;Meiryo UI&amp;quot;, Meiryo, &amp;quot;Arial Unicode MS&amp;quot;, sans-serif; font-size: 16px; text-align: left; background-color: rgb(255, 255, 255);&quot;&gt;&lt;br&gt;&lt;/span&gt;&lt;/div&gt;&lt;div&gt;&lt;span style=&quot;color: rgb(17, 17, 17); font-family: -apple-system, Roboto, SegoeUI, &amp;quot;Segoe UI&amp;quot;, &amp;quot;Helvetica Neue&amp;quot;, Helvetica, &amp;quot;Microsoft YaHei&amp;quot;, &amp;quot;Meiryo UI&amp;quot;, Meiryo, &amp;quot;Arial Unicode MS&amp;quot;, sans-serif; font-size: 16px; text-align: left; background-color: rgb(255, 255, 255);&quot;&gt;4&lt;/span&gt;&lt;/div&gt;&lt;div&gt;&lt;span style=&quot;color: rgb(17, 17, 17); font-family: -apple-system, Roboto, SegoeUI, &amp;quot;Segoe UI&amp;quot;, &amp;quot;Helvetica Neue&amp;quot;, Helvetica, &amp;quot;Microsoft YaHei&amp;quot;, &amp;quot;Meiryo UI&amp;quot;, Meiryo, &amp;quot;Arial Unicode MS&amp;quot;, sans-serif; font-size: 16px; text-align: left; background-color: rgb(255, 255, 255);&quot;&gt;Un corso può essere gestito da un amministratore. Un amministratore può gestire più corsi.&lt;/span&gt;&lt;span style=&quot;color: rgb(17, 17, 17); font-family: -apple-system, Roboto, SegoeUI, &amp;quot;Segoe UI&amp;quot;, &amp;quot;Helvetica Neue&amp;quot;, Helvetica, &amp;quot;Microsoft YaHei&amp;quot;, &amp;quot;Meiryo UI&amp;quot;, Meiryo, &amp;quot;Arial Unicode MS&amp;quot;, sans-serif; font-size: 16px; text-align: left; background-color: rgb(255, 255, 255);&quot;&gt;&lt;br&gt;&lt;/span&gt;&lt;/div&gt;&lt;div&gt;&lt;span style=&quot;color: rgb(17, 17, 17); font-family: -apple-system, Roboto, SegoeUI, &amp;quot;Segoe UI&amp;quot;, &amp;quot;Helvetica Neue&amp;quot;, Helvetica, &amp;quot;Microsoft YaHei&amp;quot;, &amp;quot;Meiryo UI&amp;quot;, Meiryo, &amp;quot;Arial Unicode MS&amp;quot;, sans-serif; font-size: 16px; text-align: left; background-color: rgb(255, 255, 255);&quot;&gt;&lt;br&gt;&lt;/span&gt;&lt;/div&gt;&lt;div&gt;&lt;span style=&quot;color: rgb(17, 17, 17); font-family: -apple-system, Roboto, SegoeUI, &amp;quot;Segoe UI&amp;quot;, &amp;quot;Helvetica Neue&amp;quot;, Helvetica, &amp;quot;Microsoft YaHei&amp;quot;, &amp;quot;Meiryo UI&amp;quot;, Meiryo, &amp;quot;Arial Unicode MS&amp;quot;, sans-serif; font-size: 16px; text-align: left; background-color: rgb(255, 255, 255);&quot;&gt;5&lt;/span&gt;&lt;/div&gt;&lt;div&gt;&lt;span style=&quot;color: rgb(17, 17, 17); font-family: -apple-system, Roboto, SegoeUI, &amp;quot;Segoe UI&amp;quot;, &amp;quot;Helvetica Neue&amp;quot;, Helvetica, &amp;quot;Microsoft YaHei&amp;quot;, &amp;quot;Meiryo UI&amp;quot;, Meiryo, &amp;quot;Arial Unicode MS&amp;quot;, sans-serif; font-size: 16px; text-align: left; background-color: rgb(255, 255, 255);&quot;&gt;Un amministratore ha un singolo record di autenticazione associato.&lt;/span&gt;&lt;span style=&quot;color: rgb(17, 17, 17); font-family: -apple-system, Roboto, SegoeUI, &amp;quot;Segoe UI&amp;quot;, &amp;quot;Helvetica Neue&amp;quot;, Helvetica, &amp;quot;Microsoft YaHei&amp;quot;, &amp;quot;Meiryo UI&amp;quot;, Meiryo, &amp;quot;Arial Unicode MS&amp;quot;, sans-serif; font-size: 16px; text-align: left; background-color: rgb(255, 255, 255);&quot;&gt;&lt;br&gt;&lt;/span&gt;&lt;/div&gt;&lt;div&gt;&lt;span style=&quot;color: rgb(17, 17, 17); font-family: -apple-system, Roboto, SegoeUI, &amp;quot;Segoe UI&amp;quot;, &amp;quot;Helvetica Neue&amp;quot;, Helvetica, &amp;quot;Microsoft YaHei&amp;quot;, &amp;quot;Meiryo UI&amp;quot;, Meiryo, &amp;quot;Arial Unicode MS&amp;quot;, sans-serif; font-size: 16px; text-align: left; background-color: rgb(255, 255, 255);&quot;&gt;&lt;br&gt;&lt;/span&gt;&lt;/div&gt;&lt;div&gt;&lt;span style=&quot;color: rgb(17, 17, 17); font-family: -apple-system, Roboto, SegoeUI, &amp;quot;Segoe UI&amp;quot;, &amp;quot;Helvetica Neue&amp;quot;, Helvetica, &amp;quot;Microsoft YaHei&amp;quot;, &amp;quot;Meiryo UI&amp;quot;, Meiryo, &amp;quot;Arial Unicode MS&amp;quot;, sans-serif; font-size: 16px; text-align: left; background-color: rgb(255, 255, 255);&quot;&gt;6&lt;/span&gt;&lt;/div&gt;&lt;div&gt;&lt;span style=&quot;color: rgb(17, 17, 17); font-family: -apple-system, Roboto, SegoeUI, &amp;quot;Segoe UI&amp;quot;, &amp;quot;Helvetica Neue&amp;quot;, Helvetica, &amp;quot;Microsoft YaHei&amp;quot;, &amp;quot;Meiryo UI&amp;quot;, Meiryo, &amp;quot;Arial Unicode MS&amp;quot;, sans-serif; font-size: 16px; text-align: left; background-color: rgb(255, 255, 255);&quot;&gt;Uno studente ha un singolo record di autenticazione associato.&lt;/span&gt;&lt;span style=&quot;color: rgb(17, 17, 17); font-family: -apple-system, Roboto, SegoeUI, &amp;quot;Segoe UI&amp;quot;, &amp;quot;Helvetica Neue&amp;quot;, Helvetica, &amp;quot;Microsoft YaHei&amp;quot;, &amp;quot;Meiryo UI&amp;quot;, Meiryo, &amp;quot;Arial Unicode MS&amp;quot;, sans-serif; font-size: 16px; text-align: left; background-color: rgb(255, 255, 255);&quot;&gt;&lt;br&gt;&lt;/span&gt;&lt;/div&gt;&lt;div&gt;&lt;span style=&quot;color: rgb(17, 17, 17); font-family: -apple-system, Roboto, SegoeUI, &amp;quot;Segoe UI&amp;quot;, &amp;quot;Helvetica Neue&amp;quot;, Helvetica, &amp;quot;Microsoft YaHei&amp;quot;, &amp;quot;Meiryo UI&amp;quot;, Meiryo, &amp;quot;Arial Unicode MS&amp;quot;, sans-serif; font-size: 16px; text-align: left; background-color: rgb(255, 255, 255);&quot;&gt;&lt;br&gt;&lt;/span&gt;&lt;/div&gt;&lt;div&gt;&lt;span style=&quot;color: rgb(17, 17, 17); font-family: -apple-system, Roboto, SegoeUI, &amp;quot;Segoe UI&amp;quot;, &amp;quot;Helvetica Neue&amp;quot;, Helvetica, &amp;quot;Microsoft YaHei&amp;quot;, &amp;quot;Meiryo UI&amp;quot;, Meiryo, &amp;quot;Arial Unicode MS&amp;quot;, sans-serif; font-size: 16px; text-align: left; background-color: rgb(255, 255, 255);&quot;&gt;7&lt;/span&gt;&lt;/div&gt;&lt;div&gt;&lt;span style=&quot;color: rgb(17, 17, 17); font-family: -apple-system, Roboto, SegoeUI, &amp;quot;Segoe UI&amp;quot;, &amp;quot;Helvetica Neue&amp;quot;, Helvetica, &amp;quot;Microsoft YaHei&amp;quot;, &amp;quot;Meiryo UI&amp;quot;, Meiryo, &amp;quot;Arial Unicode MS&amp;quot;, sans-serif; font-size: 16px; text-align: left; background-color: rgb(255, 255, 255);&quot;&gt;Un insegnante ha un singolo record di autenticazione associato.&lt;/span&gt;&lt;span style=&quot;color: rgb(17, 17, 17); font-family: -apple-system, Roboto, SegoeUI, &amp;quot;Segoe UI&amp;quot;, &amp;quot;Helvetica Neue&amp;quot;, Helvetica, &amp;quot;Microsoft YaHei&amp;quot;, &amp;quot;Meiryo UI&amp;quot;, Meiryo, &amp;quot;Arial Unicode MS&amp;quot;, sans-serif; font-size: 16px; text-align: left; background-color: rgb(255, 255, 255);&quot;&gt;&lt;br&gt;&lt;/span&gt;&lt;/div&gt;&lt;div&gt;&lt;span style=&quot;color: rgb(17, 17, 17); font-family: -apple-system, Roboto, SegoeUI, &amp;quot;Segoe UI&amp;quot;, &amp;quot;Helvetica Neue&amp;quot;, Helvetica, &amp;quot;Microsoft YaHei&amp;quot;, &amp;quot;Meiryo UI&amp;quot;, Meiryo, &amp;quot;Arial Unicode MS&amp;quot;, sans-serif; font-size: 16px; text-align: left; background-color: rgb(255, 255, 255);&quot;&gt;&lt;br&gt;&lt;/span&gt;&lt;/div&gt;" style="text;html=1;align=center;verticalAlign=middle;whiteSpace=wrap;rounded=0;" vertex="1" parent="1">
          <mxGeometry x="80" y="600" width="700" height="360" as="geometry" />
        </mxCell>
      </root>
    </mxGraphModel>
  </diagram>
</mxfile>
